#N canvas 520 29 640 606 12;
#X declare -path else;
#X obj 178 464 *~;
#X obj 132 271 mtof;
#X obj 132 307 nbx 5 14 -1e+37 1e+37 0 0 empty empty empty 0 -8 0 10
-228856 -1 -1 43.6535 256;
#X text 190 305 Hz;
#X obj 114 151 nbx 8 14 -1e+37 1e+37 0 0 empty empty empty 0 -8 0 10
-228856 -1 -1 3000 256;
#X obj 245 272 tgl 17 0 empty empty empty 17 7 0 10 -228856 -1 -1 0
1;
#X text 267 271 Note On/Off;
#X obj 117 129 hsl 128 15 500 3000 0 0 empty empty empty -2 -8 0 10
-228856 -1 -1 12700 1;
#X text 119 127 Maximum Frequency;
#N canvas 390 230 249 266 oscillator 0;
#X obj 110 163 *~ 0.5;
#X obj 110 32 inlet;
#X obj 110 216 outlet~;
#X obj 44 89 *~ 2.01;
#X obj 110 109 bl.square~;
#X obj 44 123 bl.saw~;
#X connect 0 0 2 0;
#X connect 1 0 4 0;
#X connect 1 0 3 0;
#X connect 3 0 5 0;
#X connect 4 0 0 0;
#X connect 5 0 0 0;
#X restore 132 335 pd oscillator;
#X obj 132 417 lowpass~ 0 10;
#X obj 351 184 declare -path else;
#X obj 246 241 / 127;
#X obj 261 301 adsr~ 250 150 0.5 750;
#X obj 245 418 adsr~ 250 150 0.8 750;
#X obj 261 346 rescale~ 0 1 500 1500;
#X obj 132 232 mono;
#X obj 132 190 notein;
#X obj 178 535 dac~ 1;
#X connect 0 0 18 0;
#X connect 1 0 2 0;
#X connect 2 0 9 0;
#X connect 4 0 15 4;
#X connect 5 0 13 0;
#X connect 5 0 14 0;
#X connect 7 0 4 0;
#X connect 9 0 10 0;
#X connect 10 0 0 0;
#X connect 12 0 5 0;
#X connect 13 0 15 0;
#X connect 14 0 0 1;
#X connect 15 0 10 1;
#X connect 16 0 1 0;
#X connect 16 1 12 0;
#X connect 17 0 16 0;
#X connect 17 1 16 1;
#X coords 0 -1 1 1 160 80 1 100 100;
