#N canvas 64 23 748 595 12;
#X declare -path else;
#X obj 567 213 chance 70;
#X msg 567 244 3;
#X msg 627 244 4;
#X obj 549 296 +;
#X obj 783 290 +;
#X msg 815 252 10;
#X msg 681 283 11;
#X obj 815 221 chance 30;
#X obj 701 234 rand.i 6 8;
#X obj 669 271 +;
#X obj 669 202 t f b;
#X obj 783 191 t f b;
#X obj 549 177 t f b;
#X floatatom 480 112 5 0 0 0 - - -;
#X obj 563 26 declare -path else;
#X obj 480 402 store;
#A saved;
#X msg 401 302 clear;
#X obj 261 82 sel 0;
#X obj 323 84 stripnote;
#X obj 480 196 t b f;
#X msg 354 301 dump;
#X obj 261 111 t b b;
#X msg 547 400 0;
#X obj 480 142 trigger float float float float, f 40;
#X obj 433 78 t f b;
#X obj 323 33 notein;
#X obj 513 439 noteout, f 10;
#X obj 335 484 print;
#X obj 354 446 pack;
#X obj 11 11 cnv 15 148 88 empty empty empty 20 12 0 14 -261234 -66577
0;
#X floatatom 62 66 5 0 0 0 - - -;
#X floatatom 101 66 5 0 0 0 - - -;
#X text 17 65 notein;
#X text 25 34 midi-random chord;
#X connect 0 0 1 0;
#X connect 0 1 2 0;
#X connect 1 0 3 1;
#X connect 2 0 3 1;
#X connect 3 0 15 1;
#X connect 4 0 15 1;
#X connect 5 0 4 1;
#X connect 6 0 4 1;
#X connect 7 0 5 0;
#X connect 7 1 6 0;
#X connect 8 0 9 1;
#X connect 9 0 15 1;
#X connect 10 0 9 0;
#X connect 10 1 8 0;
#X connect 11 0 4 0;
#X connect 11 1 7 0;
#X connect 12 0 3 0;
#X connect 12 1 0 0;
#X connect 13 0 23 0;
#X connect 15 0 26 0;
#X connect 15 0 28 0;
#X connect 16 0 15 0;
#X connect 17 0 21 0;
#X connect 18 0 24 0;
#X connect 18 1 26 1;
#X connect 18 1 28 1;
#X connect 19 0 20 0;
#X connect 19 1 15 1;
#X connect 20 0 15 0;
#X connect 21 0 20 0;
#X connect 21 1 22 0;
#X connect 22 0 26 1;
#X connect 22 0 28 1;
#X connect 23 0 19 0;
#X connect 23 1 12 0;
#X connect 23 2 10 0;
#X connect 23 3 11 0;
#X connect 24 0 13 0;
#X connect 24 1 16 0;
#X connect 25 0 18 0;
#X connect 25 0 30 0;
#X connect 25 1 17 0;
#X connect 25 1 18 1;
#X connect 25 1 31 0;
#X connect 28 0 27 0;
#X coords 0 -1 1 1 150 90 1 10 10;
