#N canvas 656 91 607 509 12;
#X declare -path else;
#X obj 397 193 declare -path else;
#X obj 175 93 sel 0;
#X obj 237 95 stripnote, f 14;
#X obj 175 122 t b b;
#X msg 241 268 0;
#X obj 237 44 notein;
#X floatatom 53 88 5 0 0 0 - - - 0;
#X floatatom 93 88 5 0 0 0 - - - 0;
#X text 52 70 note;
#X text 95 69 vel;
#X obj 170 265 message;
#X obj 170 293 iterate;
#N canvas 638 332 712 395 gen-chord 0;
#X obj 187 161 chance 70;
#X msg 187 192 3;
#X msg 247 192 4;
#X obj 169 244 +;
#X obj 403 238 +;
#X msg 435 200 10;
#X msg 495 198 11;
#X obj 435 169 chance 30;
#X obj 321 182 rand.i 6 8;
#X obj 289 219 +;
#X obj 289 150 t f b;
#X obj 403 139 t f b;
#X obj 169 125 t f b;
#X obj 100 90 trigger float float float float, f 40;
#X obj 142 279 pack f f f f;
#X obj 99 49 inlet;
#X obj 143 325 outlet;
#X connect 0 0 1 0;
#X connect 0 1 2 0;
#X connect 1 0 3 1;
#X connect 2 0 3 1;
#X connect 3 0 14 1;
#X connect 4 0 14 3;
#X connect 5 0 4 1;
#X connect 6 0 4 1;
#X connect 7 0 5 0;
#X connect 7 1 6 0;
#X connect 8 0 9 1;
#X connect 9 0 14 2;
#X connect 10 0 9 0;
#X connect 10 1 8 0;
#X connect 11 0 4 0;
#X connect 11 1 7 0;
#X connect 12 0 3 0;
#X connect 12 1 0 0;
#X connect 13 0 14 0;
#X connect 13 1 12 0;
#X connect 13 2 10 0;
#X connect 13 3 11 0;
#X connect 14 0 16 0;
#X connect 15 0 13 0;
#X restore 237 136 pd gen-chord;
#X obj 226 432 noteout, f 10;
#X obj 223 387 unpack;
#X obj 223 353 pack float float;
#X connect 1 0 3 0;
#X connect 2 0 12 0;
#X connect 2 1 15 1;
#X connect 3 0 10 0;
#X connect 3 1 4 0;
#X connect 4 0 15 1;
#X connect 5 0 2 0;
#X connect 5 0 6 0;
#X connect 5 1 1 0;
#X connect 5 1 2 1;
#X connect 5 1 7 0;
#X connect 10 0 11 0;
#X connect 11 0 15 0;
#X connect 12 0 10 0;
#X connect 14 0 13 0;
#X connect 14 1 13 1;
#X connect 15 0 14 0;
#X coords 0 -1 1 1 83 60 1 50 50;
