#N struct 1009-f float x;
#N canvas 296 25 970 738 10;
#X declare -path list-abs;
#X declare -path else;
#X obj 11 11 cnv 15 240 60 empty empty Camomile-ELSE 20 12 0 12 -233017
-66577 0;
#X obj 329 18 notein;
#X obj 329 45 pack;
#N canvas 138 47 509 710 pressed_notes 0;
#X obj 32 13 inlet;
#X msg 84 101 128;
#X obj 84 122 until;
#X obj 84 143 count 0 127, f 30;
#X obj 84 388 list prepend;
#X msg 148 188 1;
#X obj 84 164 t f b f, f 22;
#X obj 84 285 spigot 1;
#X obj 84 228 t f f;
#X obj 129 244 != 0;
#X obj 53 664 outlet;
#X text 79 10 bang to inspect array \$0-arp_notes for notes pressed
, f 30;
#X msg 84 482 \$1;
#X obj 84 527 list;
#X obj 321 374 t b b;
#X obj 291 509 list append, f 17;
#X obj 291 528 list;
#X msg 291 483 \$2;
#X obj 260 664 outlet;
#X obj 270 555 list;
#X obj 201 398 t b b, f 12;
#X text 58 682 list of midinotes pressed;
#X text 285 682 velocity of each note;
#X obj 84 207 array get \$0-notes_in;
#X obj 84 429 t l l, f 35;
#X obj 412 314 count;
#X obj 412 335 sel 127;
#X msg 432 245 reset;
#X obj 84 80 t b b b, f 35;
#X obj 129 265 t f f, f 47;
#X obj 408 287 sel 0;
#X obj 63 575 list-sort asc;
#X obj 63 556 list;
#X obj 84 508 list append, f 14;
#X obj 63 619 route bang;
#X obj 412 378 t b b;
#X obj 63 596 list trim;
#X obj 270 575 list-sort asc;
#X obj 270 619 route bang;
#X obj 270 596 list trim;
#X msg 63 639 -1;
#X msg 270 637 -1;
#X connect 0 0 28 0;
#X connect 1 0 2 0;
#X connect 2 0 3 0;
#X connect 3 0 6 0;
#X connect 3 1 20 0;
#X connect 4 0 24 0;
#X connect 5 0 23 1;
#X connect 6 0 23 0;
#X connect 6 1 5 0;
#X connect 6 2 4 1;
#X connect 7 0 4 0;
#X connect 8 0 7 0;
#X connect 8 1 9 0;
#X connect 9 0 29 0;
#X connect 12 0 33 0;
#X connect 13 0 32 1;
#X connect 13 0 33 1;
#X connect 14 0 33 1;
#X connect 14 1 15 1;
#X connect 15 0 16 0;
#X connect 16 0 15 1;
#X connect 16 0 19 1;
#X connect 17 0 15 0;
#X connect 19 0 37 0;
#X connect 20 0 32 0;
#X connect 20 1 19 0;
#X connect 23 0 8 0;
#X connect 24 0 12 0;
#X connect 24 1 17 0;
#X connect 25 0 26 0;
#X connect 26 0 35 0;
#X connect 27 0 25 0;
#X connect 28 0 1 0;
#X connect 28 1 14 0;
#X connect 28 2 27 0;
#X connect 29 0 7 1;
#X connect 29 1 30 0;
#X connect 30 0 25 0;
#X connect 31 0 36 0;
#X connect 32 0 31 0;
#X connect 33 0 13 0;
#X connect 34 0 40 0;
#X connect 34 1 10 0;
#X connect 35 0 32 1;
#X connect 35 1 19 1;
#X connect 36 0 34 0;
#X connect 37 0 39 0;
#X connect 38 0 41 0;
#X connect 38 1 18 0;
#X connect 39 0 38 0;
#X connect 40 0 10 0;
#X connect 41 0 18 0;
#X restore 349 200 pd pressed_notes;
#N canvas 193 195 450 300 midi_notes_in 0;
#X obj 131 89 inlet;
#X obj 146 137 unpack;
#X obj 146 204 f, f 6;
#X obj 146 165 t b f;
#X obj 146 235 array set \$0-notes_in;
#X obj 13 27 array define -yrange 0 127 \$0-notes_in 128;
#X connect 0 0 1 0;
#X connect 1 0 3 0;
#X connect 1 1 2 1;
#X connect 2 0 4 0;
#X connect 3 0 2 0;
#X connect 3 1 4 1;
#X restore 329 66 pd midi_notes_in;
#X obj 25 133 tgl 17 0 empty \$0-playing empty 17 7 0 10 -228856 -1
-1 0 1;
#X obj 25 215 s \$0-tempo;
#X obj 329 154 r \$0-tempo;
#X obj 808 5 declare -path list-abs;
#X obj 189 49 vradio 20 1 0 6 \$0-arpeggioMode_OUT \$0-arpeggioMode_IN
empty 0 -8 0 10 -191407 -1 -1 0;
#X obj 90 596 makenote 80 250;
#X obj 87 647 noteout;
#N canvas 698 159 450 371 objetivo 0;
#X text 37 21 Referência:;
#X obj 111 21 openfile https://www.ableton.com/en/manual/live-midi-effect-reference/
-h Ableton Live Arpeggiator;
#X text 55 57 ToDo:;
#X text 56 186 Feito:;
#X text 65 204 - Up;
#X text 65 220 - Down;
#X text 65 237 - UpDown;
#X text 65 253 - DownUp;
#X text 65 76 - Converge;
#X text 65 92 - Diverge;
#X text 65 108 - Pinky Up;
#X text 65 124 - Pinky Down;
#X text 65 141 - Thumb Up;
#X text 65 157 - Thumb Down;
#X text 65 274 - Up & Down;
#X text 65 290 - Down & Up;
#X restore 874 45 pd objetivo;
#X obj 59 135 nbx 4 14 -1e+37 1e+37 0 0 empty \$0-bpm BPM 0 -8 0 10
-228856 -1 -1 0 256;
#X obj 113 135 nbx 4 14 -1e+37 1e+37 0 0 empty \$0-denumerator Subdivisions
0 -8 0 10 -228856 -1 -1 0 256;
#X obj 349 227 changed;
#X obj 349 248 buffer \$0-to_arpeggiate;
#X obj 54 278 r \$0-tempo;
#N canvas 514 168 450 420 metronomo 0;
#X obj 84 54 inlet;
#X obj 170 54 inlet;
#X obj 252 54 inlet;
#X msg 268 139 -div \$1;
#X msg 295 190 1 \$1;
#X obj 268 106 t f f;
#X obj 181 99 t f b;
#X msg 208 216 reset;
#X obj 123 295 count 1 4;
#X obj 123 184 else/tempo 60 -div 4;
#X obj 108 379 outlet;
#X text 36 34 On/Off (0-1);
#X text 166 30 BPM;
#X text 256 29 Subdividion;
#X text 155 380 tempo number (1-n);
#X connect 0 0 9 0;
#X connect 1 0 6 0;
#X connect 2 0 5 0;
#X connect 3 0 9 0;
#X connect 4 0 8 1;
#X connect 5 0 3 0;
#X connect 5 1 4 0;
#X connect 6 0 9 1;
#X connect 6 1 7 0;
#X connect 7 0 8 0;
#X connect 8 0 10 0;
#X connect 9 0 8 0;
#X restore 25 162 pd metronomo;
#X obj 90 453 array get \$0-to_arpeggiate;
#X obj 90 412 t f b;
#X msg 166 434 1;
#X obj 329 131 array define -yrange 0 127 \$0-to_arpeggiate;
#N canvas 378 138 711 371 arpeggio_modes 0;
#X obj 50 14 inlet;
#X obj 306 307 outlet;
#X obj 357 12 inlet;
#N canvas 266 90 615 620 Up/Down 0;
#X obj 62 32 inlet;
#X obj 114 581 outlet;
#X obj 387 32 inlet;
#X text 489 102 1 - Down;
#X obj 420 87 sel 0 1, f 9;
#X msg 445 105 1, f 1;
#X text 489 88 0 - Up;
#X msg 420 382 1;
#X msg 471 382 0;
#X obj 134 484 spigot 1;
#X obj 86 87 t b b, f 19;
#X obj 197 108 buffer \$0-to_arpeggiate;
#X obj 197 129 list length;
#X obj 86 299 count;
#X obj 197 150 - 1;
#X obj 86 325 t f f, f 10;
#X obj 113 228 change;
#X obj 143 345 >=, f 14;
#X obj 143 362 sel 1;
#X msg 143 381 reset;
#X msg 420 105 0, f 1;
#X text 161 582 output index of \$0-to_arpeggiate to be read;
#X msg 113 249 0 \$1;
#X msg 299 238 up;
#X msg 336 237 down;
#X obj 197 171 t f f;
#X connect 0 0 10 0;
#X connect 2 0 4 0;
#X connect 4 0 20 0;
#X connect 4 1 5 0;
#X connect 4 2 8 0;
#X connect 5 0 7 0;
#X connect 5 0 24 0;
#X connect 7 0 9 1;
#X connect 8 0 9 1;
#X connect 9 0 1 0;
#X connect 10 0 13 0;
#X connect 10 1 11 0;
#X connect 11 0 12 0;
#X connect 12 0 14 0;
#X connect 13 0 15 0;
#X connect 14 0 25 0;
#X connect 15 0 9 0;
#X connect 15 1 17 0;
#X connect 16 0 22 0;
#X connect 17 0 18 0;
#X connect 18 0 19 0;
#X connect 19 0 13 0;
#X connect 20 0 7 0;
#X connect 20 0 23 0;
#X connect 22 0 13 1;
#X connect 23 0 13 0;
#X connect 24 0 13 0;
#X connect 25 0 16 0;
#X connect 25 1 17 1;
#X restore 75 156 pd Up/Down;
#X obj 377 55 t f f f f f f, f 34;
#X text 398 17 arpeggio mode;
#X obj 75 55 t b b b b b b, f 38;
#X text 92 19 tempo bang;
#X text 327 326 idx of \$0-to_arpeggiate array to be read;
#N canvas 277 79 615 620 UpDown/DownUp 0;
#X obj 62 32 inlet;
#X obj 114 581 outlet;
#X obj 387 32 inlet;
#X msg 445 95 1, f 1;
#X msg 420 382 1;
#X msg 471 382 0;
#X obj 134 484 spigot 1;
#X obj 86 77 t b b, f 19;
#X obj 197 108 buffer \$0-to_arpeggiate;
#X obj 197 129 list length;
#X obj 197 148 change;
#X msg 420 95 0, f 1;
#X text 161 582 output index of \$0-to_arpeggiate to be read;
#X obj 420 77 sel 2 3, f 9;
#X text 489 78 2 - UpDown;
#X text 489 92 3 - DownUp;
#N canvas 3 48 504 429 create_idxsList 0;
#X obj 61 35 inlet;
#X obj 202 35 inlet;
#X obj 153 138 f;
#X obj 245 99 t b f;
#X obj 128 366 outlet;
#N canvas 375 113 421 443 create_list_(0-n) 0;
#X obj 128 47 inlet;
#X obj 148 363 outlet;
#X obj 158 302 list-lastx, f 15;
#X obj 158 144 until;
#X obj 158 165 count;
#X msg 185 265 reset;
#X obj 158 118 t f f f, f 17;
#X obj 185 206 >=;
#X obj 185 225 sel 1;
#X obj 207 144 - 1;
#X obj 158 186 t f f;
#X obj 185 244 del 5;
#X connect 0 0 6 0;
#X connect 2 0 1 0;
#X connect 3 0 4 0;
#X connect 4 0 10 0;
#X connect 5 0 4 0;
#X connect 6 0 3 0;
#X connect 6 1 9 0;
#X connect 6 2 2 1;
#X connect 7 0 8 0;
#X connect 8 0 11 0;
#X connect 9 0 7 1;
#X connect 10 0 2 0;
#X connect 10 1 7 0;
#X connect 11 0 5 0;
#X restore 153 156 pd create_list_(0-n);
#N canvas 401 145 558 395 UpDown_indexes 0;
#X obj 140 50 inlet;
#X obj 188 308 outlet;
#X obj 198 192 list-group, f 16;
#X obj 161 101 t l l l, f 26;
#X obj 314 120 list length;
#X obj 314 142 * 2;
#X obj 237 125 list-rev;
#X obj 161 164 list split 1, f 13;
#X obj 314 163 - 1;
#X obj 314 214 - 1;
#X obj 198 237 list split, f 18;
#X connect 0 0 3 0;
#X connect 2 0 10 0;
#X connect 3 0 7 0;
#X connect 3 1 6 0;
#X connect 3 2 4 0;
#X connect 4 0 5 0;
#X connect 5 0 8 0;
#X connect 6 0 2 0;
#X connect 7 1 2 0;
#X connect 8 0 2 1;
#X connect 8 0 9 0;
#X connect 9 0 10 1;
#X connect 10 0 1 0;
#X restore 153 192 pd UpDown_indexes;
#X obj 153 281 selector, f 32;
#X obj 153 233 t a a, f 11;
#N canvas 375 268 450 300 DownUp_indexes 0;
#X obj 149 50 inlet;
#X obj 179 201 outlet;
#X obj 234 122 list length;
#X obj 234 142 / 2;
#X obj 189 104 t l l, f 8;
#X obj 189 162 list-rot;
#X connect 0 0 4 0;
#X connect 2 0 3 0;
#X connect 3 0 5 1;
#X connect 4 0 5 0;
#X connect 4 1 2 0;
#X connect 5 0 1 0;
#X restore 216 255 pd DownUp_indexes;
#X obj 92 167 sel 1;
#X msg 92 188 0;
#X connect 0 0 2 0;
#X connect 1 0 3 0;
#X connect 2 0 5 0;
#X connect 2 0 10 0;
#X connect 3 0 2 0;
#X connect 3 1 7 2;
#X connect 5 0 6 0;
#X connect 6 0 8 0;
#X connect 7 0 4 0;
#X connect 8 0 7 0;
#X connect 8 1 9 0;
#X connect 9 0 7 1;
#X connect 10 0 11 0;
#X connect 11 0 4 0;
#X restore 224 235 pd create_idxsList;
#X obj 506 214 list-seek;
#X obj 86 325 t b f;
#X msg 86 360 0;
#X obj 224 284 list prepend set;
#X obj 224 305 list trim;
#X obj 86 194 count;
#X obj 197 169 t f f;
#X obj 86 215 t f f, f 8;
#X obj 131 257 sel 1;
#X obj 131 278 del 5;
#X msg 131 299 reset;
#X obj 86 387 list-idx;
#X obj 185 193 * 2;
#X obj 185 212 - 3;
#X obj 131 236 >=;
#X connect 0 0 7 0;
#X connect 2 0 13 0;
#X connect 3 0 4 0;
#X connect 3 0 16 1;
#X connect 4 0 6 1;
#X connect 5 0 6 1;
#X connect 6 0 1 0;
#X connect 7 0 22 0;
#X connect 7 1 8 0;
#X connect 8 0 9 0;
#X connect 9 0 10 0;
#X connect 10 0 23 0;
#X connect 11 0 4 0;
#X connect 11 0 16 1;
#X connect 13 0 11 0;
#X connect 13 1 3 0;
#X connect 13 2 5 0;
#X connect 16 0 20 0;
#X connect 18 0 19 0;
#X connect 18 1 28 1;
#X connect 19 0 28 0;
#X connect 20 0 21 0;
#X connect 21 0 19 0;
#X connect 22 0 24 0;
#X connect 23 0 29 0;
#X connect 23 1 16 0;
#X connect 24 0 18 0;
#X connect 24 1 31 0;
#X connect 25 0 26 0;
#X connect 26 0 27 0;
#X connect 27 0 22 0;
#X connect 28 0 6 0;
#X connect 29 0 30 0;
#X connect 30 0 31 1;
#X connect 31 0 25 0;
#X restore 194 156 pd UpDown/DownUp;
#N canvas 277 79 615 620 Up&Down/Down&Up 0;
#X obj 62 32 inlet;
#X obj 114 581 outlet;
#X obj 387 32 inlet;
#X msg 445 95 1, f 1;
#X msg 420 382 1;
#X msg 471 382 0;
#X obj 134 484 spigot 1;
#X obj 86 77 t b b, f 19;
#X obj 197 108 buffer \$0-to_arpeggiate;
#X obj 197 129 list length;
#X obj 197 148 change;
#X msg 420 95 0, f 1;
#X text 161 582 output index of \$0-to_arpeggiate to be read;
#N canvas 3 48 504 429 create_idxsList 0;
#X obj 61 35 inlet;
#X obj 202 35 inlet;
#X obj 153 138 f;
#X obj 245 99 t b f, f 24;
#X obj 128 366 outlet;
#N canvas 375 113 421 443 create_list_(0-n) 0;
#X obj 128 47 inlet;
#X obj 148 363 outlet;
#X obj 158 302 list-lastx, f 15;
#X obj 158 144 until;
#X obj 158 165 count;
#X msg 185 265 reset;
#X obj 158 118 t f f f, f 17;
#X obj 185 206 >=;
#X obj 185 225 sel 1;
#X obj 207 144 - 1;
#X obj 158 186 t f f;
#X obj 185 244 del 5;
#X connect 0 0 6 0;
#X connect 2 0 1 0;
#X connect 3 0 4 0;
#X connect 4 0 10 0;
#X connect 5 0 4 0;
#X connect 6 0 3 0;
#X connect 6 1 9 0;
#X connect 6 2 2 1;
#X connect 7 0 8 0;
#X connect 8 0 11 0;
#X connect 9 0 7 1;
#X connect 10 0 2 0;
#X connect 10 1 7 0;
#X connect 11 0 5 0;
#X restore 153 156 pd create_list_(0-n);
#X obj 153 281 selector, f 40;
#X obj 153 183 t a a, f 20;
#N canvas 486 119 450 300 DownUp_indexes 0;
#X obj 149 50 inlet;
#X obj 179 251 outlet;
#X obj 161 101 t l l l, f 26;
#X obj 314 120 list length;
#X obj 314 142 * 2;
#X obj 161 125 list-rev;
#X obj 198 192 list-group, f 16;
#X connect 0 0 2 0;
#X connect 2 0 5 0;
#X connect 2 1 6 0;
#X connect 2 2 3 0;
#X connect 3 0 4 0;
#X connect 4 0 6 1;
#X connect 5 0 6 0;
#X connect 6 0 1 0;
#X restore 270 223 pd DownUp_indexes;
#X obj 92 167 sel 1;
#X msg 92 188 0;
#N canvas 401 145 558 395 UpDown_indexes 0;
#X obj 140 50 inlet;
#X obj 188 308 outlet;
#X obj 198 192 list-group, f 16;
#X obj 161 101 t l l l, f 26;
#X obj 314 120 list length;
#X obj 314 142 * 2;
#X obj 237 125 list-rev;
#X connect 0 0 3 0;
#X connect 2 0 1 0;
#X connect 3 0 2 0;
#X connect 3 1 6 0;
#X connect 3 2 4 0;
#X connect 4 0 5 0;
#X connect 5 0 2 1;
#X connect 6 0 2 0;
#X restore 153 222 pd UpDown_indexes;
#X connect 0 0 2 0;
#X connect 1 0 3 0;
#X connect 2 0 5 0;
#X connect 2 0 9 0;
#X connect 3 0 2 0;
#X connect 3 1 6 2;
#X connect 5 0 7 0;
#X connect 6 0 4 0;
#X connect 7 0 11 0;
#X connect 7 1 8 0;
#X connect 8 0 6 1;
#X connect 9 0 10 0;
#X connect 10 0 4 0;
#X connect 11 0 6 0;
#X restore 224 235 pd create_idxsList;
#X obj 86 325 t b f;
#X msg 86 360 0;
#X obj 224 284 list prepend set;
#X obj 224 305 list trim;
#X obj 86 194 count;
#X obj 197 169 t f f;
#X obj 86 215 t f f, f 8;
#X obj 131 257 sel 1;
#X msg 131 299 reset;
#X obj 86 387 list-idx;
#X obj 185 193 * 2;
#X obj 131 236 >=;
#X obj 420 77 sel 4 5, f 9;
#X text 489 78 4 - Up & Down;
#X text 489 92 5 - Down & Up;
#X obj 131 278 del 1;
#X obj 185 212 - 1;
#X connect 0 0 7 0;
#X connect 2 0 26 0;
#X connect 3 0 4 0;
#X connect 3 0 13 1;
#X connect 4 0 6 1;
#X connect 5 0 6 1;
#X connect 6 0 1 0;
#X connect 7 0 18 0;
#X connect 7 1 8 0;
#X connect 8 0 9 0;
#X connect 9 0 10 0;
#X connect 10 0 19 0;
#X connect 11 0 4 0;
#X connect 11 0 13 1;
#X connect 13 0 16 0;
#X connect 14 0 15 0;
#X connect 14 1 23 1;
#X connect 15 0 23 0;
#X connect 16 0 17 0;
#X connect 17 0 15 0;
#X connect 18 0 20 0;
#X connect 19 0 24 0;
#X connect 19 1 13 0;
#X connect 20 0 14 0;
#X connect 20 1 25 0;
#X connect 21 0 29 0;
#X connect 22 0 18 0;
#X connect 23 0 6 0;
#X connect 24 0 30 0;
#X connect 25 0 21 0;
#X connect 26 0 11 0;
#X connect 26 1 3 0;
#X connect 26 2 5 0;
#X connect 29 0 22 0;
#X connect 30 0 25 1;
#X restore 320 155 pd Up&Down/Down&Up;
#N canvas 277 79 615 620 Converge/Diverge 0;
#X obj 62 32 inlet;
#X obj 114 581 outlet;
#X obj 387 32 inlet;
#X msg 445 95 1, f 1;
#X msg 420 382 1;
#X msg 471 382 0;
#X obj 134 484 spigot 1;
#X obj 86 77 t b b, f 19;
#X obj 197 108 buffer \$0-to_arpeggiate;
#X obj 197 129 list length;
#X obj 197 148 change;
#X msg 420 95 0, f 1;
#X text 161 582 output index of \$0-to_arpeggiate to be read;
#N canvas 447 131 504 429 create_idxsList 0;
#X obj 61 35 inlet;
#X obj 202 35 inlet;
#X obj 153 138 f;
#X obj 245 99 t b f, f 24;
#X obj 128 366 outlet;
#N canvas 375 113 421 443 create_list_(0-n) 0;
#X obj 128 47 inlet;
#X obj 148 363 outlet;
#X obj 158 302 list-lastx, f 15;
#X obj 158 144 until;
#X obj 158 165 count;
#X msg 185 265 reset;
#X obj 158 118 t f f f, f 17;
#X obj 185 206 >=;
#X obj 185 225 sel 1;
#X obj 207 144 - 1;
#X obj 158 186 t f f;
#X obj 185 244 del 5;
#X connect 0 0 6 0;
#X connect 2 0 1 0;
#X connect 3 0 4 0;
#X connect 4 0 10 0;
#X connect 5 0 4 0;
#X connect 6 0 3 0;
#X connect 6 1 9 0;
#X connect 6 2 2 1;
#X connect 7 0 8 0;
#X connect 8 0 11 0;
#X connect 9 0 7 1;
#X connect 10 0 2 0;
#X connect 10 1 7 0;
#X connect 11 0 5 0;
#X restore 153 156 pd create_list_(0-n);
#X obj 153 281 selector, f 43;
#X obj 153 183 t a a, f 21;
#X obj 92 167 sel 1;
#X msg 92 188 0;
#N canvas 217 87 558 592 Converge_indexes 0;
#X obj 140 50 inlet;
#X obj 188 505 outlet;
#X obj 198 299 list-group, f 16;
#X obj 161 101 t l l l, f 37;
#X obj 380 120 list length;
#X obj 161 244 list-idx;
#X obj 161 215 list, f 16;
#X obj 161 194 t b f;
#X obj 127 343 display;
#N canvas 597 98 618 596 counters 0;
#X obj 103 24 inlet;
#X obj 273 73 list length;
#X obj 236 303 count, f 16;
#X msg 329 277 0 \$1;
#X msg 281 281 up;
#X obj 226 374 outlet;
#X obj 443 303 count, f 17;
#X msg 488 281 down;
#X obj 433 374 outlet;
#X text 473 374 Down;
#X msg 542 277 \$1 0;
#X obj 420 153 t f f;
#N canvas 359 178 609 413 select-out 0;
#X obj 95 24 inlet;
#X obj 123 347 outlet;
#X obj 238 347 outlet;
#X obj 149 115 until;
#X obj 149 149 count;
#X msg 279 137 \$1 0;
#X msg 214 116 down;
#X obj 149 206 <= 0;
#X obj 149 227 sel 1;
#X obj 149 248 del 1;
#X obj 446 347 outlet;
#X text 490 349 end bang;
#X text 49 346 Upper index;
#X text 280 345 Lower index;
#X obj 303 280 spigot 0;
#X obj 414 280 spigot 0;
#X obj 50 126 bng 15 250 50 0 empty empty empty 17 7 0 10 -262144 -1
-1;
#X obj 118 179 display;
#X msg 344 116 reset;
#X obj 167 31 display;
#X obj 459 260 == 0;
#X obj 348 260 == 1;
#X obj 459 211 mod 2;
#X obj 489 237 display;
#X obj 149 93 t f b f b, f 33;
#X obj 303 193 t b b, f 19;
#X obj 149 172 t f b f, f 52;
#X obj 279 112 - 1;
#X connect 0 0 19 0;
#X connect 0 0 24 0;
#X connect 3 0 4 0;
#X connect 4 0 17 0;
#X connect 4 0 26 0;
#X connect 5 0 4 1;
#X connect 6 0 4 0;
#X connect 7 0 8 0;
#X connect 8 0 9 0;
#X connect 9 0 10 0;
#X connect 14 0 1 0;
#X connect 15 0 2 0;
#X connect 16 0 4 0;
#X connect 18 0 4 0;
#X connect 20 0 15 1;
#X connect 21 0 14 1;
#X connect 22 0 20 0;
#X connect 22 0 21 0;
#X connect 22 0 23 0;
#X connect 24 0 3 0;
#X connect 24 1 6 0;
#X connect 24 2 27 0;
#X connect 24 3 18 0;
#X connect 25 0 14 0;
#X connect 25 1 15 0;
#X connect 26 0 7 0;
#X connect 26 1 25 0;
#X connect 26 2 22 0;
#X connect 27 0 5 0;
#X restore 273 154 pd select-out;
#X msg 348 334 reset;
#X obj 273 106 t f f f, f 25;
#X obj 236 263 t b b, f 8;
#X obj 443 263 t b b, f 8;
#X obj 420 129 - 1;
#X msg 45 64 0 1 2 3 4 5 6;
#X obj 60 103 t l l, f 10;
#X obj 60 130 list length;
#X obj 60 315 list-idx;
#X obj 60 176 t f b;
#X msg 87 195 0, f 1;
#X obj 60 291 list, f 6;
#X obj 60 271 t b f, f 8;
#X obj 60 154 - 1;
#X obj 50 352 print;
#X connect 0 0 1 0;
#X connect 1 0 14 0;
#X connect 2 0 5 0;
#X connect 3 0 2 1;
#X connect 4 0 2 0;
#X connect 6 0 8 0;
#X connect 7 0 6 0;
#X connect 10 0 6 1;
#X connect 11 0 3 0;
#X connect 11 1 10 0;
#X connect 12 0 15 0;
#X connect 12 1 16 0;
#X connect 12 2 13 0;
#X connect 13 0 6 0;
#X connect 13 0 2 0;
#X connect 14 0 12 0;
#X connect 14 2 17 0;
#X connect 15 0 2 0;
#X connect 15 1 4 0;
#X connect 16 0 6 0;
#X connect 16 1 7 0;
#X connect 17 0 11 0;
#X connect 18 0 19 0;
#X connect 19 0 20 0;
#X connect 19 1 24 1;
#X connect 20 0 26 0;
#X connect 21 0 5 0;
#X connect 21 0 27 0;
#X connect 22 0 25 0;
#X connect 22 1 23 0;
#X connect 23 0 25 0;
#X connect 24 0 21 0;
#X connect 25 0 24 0;
#X connect 25 1 21 1;
#X connect 26 0 22 0;
#X restore 161 137 pd counters;
#X msg 185 32 0 1 2 3 4 5 6;
#X connect 0 0 3 0;
#X connect 2 0 8 0;
#X connect 3 0 9 0;
#X connect 3 1 6 1;
#X connect 3 2 4 0;
#X connect 4 0 2 1;
#X connect 5 0 2 0;
#X connect 6 0 5 0;
#X connect 7 0 6 0;
#X connect 7 1 5 1;
#X connect 9 0 7 0;
#X connect 9 1 7 0;
#X connect 10 0 3 0;
#X restore 153 222 pd Converge_indexes;
#N canvas 486 119 450 300 Diverge_indexes 0;
#X obj 149 50 inlet;
#X obj 179 251 outlet;
#X obj 161 101 t l l l, f 26;
#X obj 314 120 list length;
#X obj 314 142 * 2;
#X obj 161 125 list-rev;
#X obj 198 192 list-group, f 16;
#X connect 0 0 2 0;
#X connect 2 0 5 0;
#X connect 2 1 6 0;
#X connect 2 2 3 0;
#X connect 3 0 4 0;
#X connect 4 0 6 1;
#X connect 5 0 6 0;
#X connect 6 0 1 0;
#X restore 280 222 pd Diverge_indexes;
#X connect 0 0 2 0;
#X connect 1 0 3 0;
#X connect 2 0 5 0;
#X connect 2 0 8 0;
#X connect 3 0 2 0;
#X connect 3 1 6 2;
#X connect 5 0 7 0;
#X connect 6 0 4 0;
#X connect 7 0 10 0;
#X connect 7 1 11 0;
#X connect 8 0 9 0;
#X connect 9 0 4 0;
#X connect 10 0 6 0;
#X connect 11 0 6 1;
#X restore 224 235 pd create_idxsList;
#X obj 506 214 list-seek;
#X obj 86 325 t b f;
#X msg 86 360 0;
#X obj 224 284 list prepend set;
#X obj 224 305 list trim;
#X obj 86 194 count;
#X obj 197 169 t f f;
#X obj 86 215 t f f, f 8;
#X obj 131 257 sel 1;
#X msg 131 299 reset;
#X obj 86 387 list-idx;
#X obj 185 193 * 2;
#X obj 131 236 >=;
#X obj 131 278 del 1;
#X obj 185 212 - 1;
#X obj 420 77 sel 6 7, f 9;
#X text 489 78 6 - Converge;
#X text 489 92 7 - Diverge;
#X connect 0 0 7 0;
#X connect 2 0 29 0;
#X connect 3 0 4 0;
#X connect 3 0 13 1;
#X connect 4 0 6 1;
#X connect 5 0 6 1;
#X connect 6 0 1 0;
#X connect 7 0 19 0;
#X connect 7 1 8 0;
#X connect 8 0 9 0;
#X connect 9 0 10 0;
#X connect 10 0 20 0;
#X connect 11 0 4 0;
#X connect 11 0 13 1;
#X connect 13 0 17 0;
#X connect 15 0 16 0;
#X connect 15 1 24 1;
#X connect 16 0 24 0;
#X connect 17 0 18 0;
#X connect 18 0 16 0;
#X connect 19 0 21 0;
#X connect 20 0 25 0;
#X connect 20 1 13 0;
#X connect 21 0 15 0;
#X connect 21 1 26 0;
#X connect 22 0 27 0;
#X connect 23 0 19 0;
#X connect 24 0 6 0;
#X connect 25 0 28 0;
#X connect 26 0 22 0;
#X connect 27 0 23 0;
#X connect 28 0 26 1;
#X connect 29 0 11 0;
#X connect 29 1 3 0;
#X connect 29 2 5 0;
#X restore 446 155 pd Converge/Diverge;
#X obj 536 20 initmess 0;
#X connect 0 0 6 0;
#X connect 2 0 4 0;
#X connect 3 0 1 0;
#X connect 4 0 3 1;
#X connect 4 1 9 1;
#X connect 4 2 10 1;
#X connect 4 3 11 1;
#X connect 6 0 3 0;
#X connect 6 1 9 0;
#X connect 6 2 10 0;
#X connect 6 3 11 0;
#X connect 9 0 1 0;
#X connect 10 0 1 0;
#X connect 11 0 1 0;
#X connect 12 0 4 0;
#X restore 90 337 pd arpeggio_modes;
#X obj 90 491 route -1;
#X text 211 290 converge;
#X text 211 309 diverge;
#X text 218 70 ↓;
#X text 218 52 ↑;
#X text 215 91 ↑↓;
#X text 215 110 ↓↑;
#X text 212 130 ↑&↓;
#X text 211 150 ↓&↑;
#X obj 820 23 declare -path else;
#X floatatom 88 73 5 0 0 0 - - -;
#X floatatom 127 73 5 0 0 0 - - -;
#X text 43 72 notein;
#X text 37 94 noteout;
#X floatatom 87 94 5 0 0 0 - - -;
#X floatatom 126 94 5 0 0 0 - - -;
#X text 82 41 LiVo Arpegiador;
#X obj 323 349 r playhead;
#X obj 343 640 s \$0-playing;
#X obj 629 137 tgl 15 0 empty \$0-playing Playing 0 -7 0 10 -262144
-1 -1 0 1;
#X obj 408 603 s \$0-bpm;
#X floatatom 629 175 5 0 0 2 - #0-bpm -;
#X text 628 160 BPM;
#X obj 473 526 unpack f f;
#X floatatom 702 139 5 0 0 2 - #0-numerator -;
#X text 701 122 Time Signature;
#X obj 473 596 s \$0-numerator;
#X obj 530 576 s \$0-denumerator;
#X floatatom 702 159 5 0 0 2 - #0-denumerator -;
#X text 738 140 Numerator;
#X text 738 160 Denumerator;
#X obj 181 483 r \$0-bpm;
#X obj 181 504 pack2 60 4;
#X obj 238 483 r \$0-denumerator;
#X obj 343 542 change;
#X obj 408 505 change;
#X obj 530 550 change;
#X obj 473 550 change;
#X obj 343 400 route playing bpm timesig, f 33;
#X obj 181 545 bpm;
#X obj 181 525 *;
#X obj 740 342 r \$0-arpeggioMode_OUT;
#X obj 740 363 param.set 1;
#X text 725 281 Parameters Automatable;
#X obj 740 304 param.change;
#X obj 741 390 param.get 1;
#X obj 741 412 s \$0-arpeggioMode_IN;
#X connect 1 0 2 0;
#X connect 1 0 34 0;
#X connect 1 1 2 1;
#X connect 1 1 35 0;
#X connect 2 0 4 0;
#X connect 3 0 15 0;
#X connect 5 0 18 0;
#X connect 7 0 3 0;
#X connect 9 0 23 1;
#X connect 10 0 11 0;
#X connect 10 0 38 0;
#X connect 10 1 11 1;
#X connect 10 1 39 0;
#X connect 13 0 18 1;
#X connect 14 0 18 2;
#X connect 15 0 16 0;
#X connect 17 0 23 0;
#X connect 18 0 6 0;
#X connect 19 0 24 0;
#X connect 20 0 19 0;
#X connect 20 1 21 0;
#X connect 21 0 19 1;
#X connect 23 0 20 0;
#X connect 24 1 10 0;
#X connect 41 0 62 0;
#X connect 47 0 61 0;
#X connect 47 1 60 0;
#X connect 55 0 56 0;
#X connect 56 0 64 0;
#X connect 57 0 56 1;
#X connect 58 0 42 0;
#X connect 59 0 44 0;
#X connect 60 0 51 0;
#X connect 61 0 50 0;
#X connect 62 0 58 0;
#X connect 62 1 59 0;
#X connect 62 2 47 0;
#X connect 63 0 10 2;
#X connect 64 0 63 0;
#X connect 65 0 66 0;
#X connect 69 0 70 0;
#X coords 0 -1 1 1 240 185 2 10 10;
