#N canvas 231 23 713 641 12;
#X declare -path else;
#X obj 331 439 *~;
#X obj 110 160 hsl 128 15 10 500 0 0 empty depth empty -2 -8 0 10 -228856
-1 -1 0 1;
#X obj 349 328 nbx 5 14 -1e+37 1e+37 0 0 empty empty empty 0 -8 0 10
-228856 -1 -1 0 256;
#X obj 111 185 hsl 128 15 -0.999 0.999 0 0 empty empty empty -2 -8
0 10 -228856 -1 -1 0 1;
#X text 145 184 Feedback;
#X obj 396 425 nbx 5 14 -1e+37 1e+37 0 0 empty empty empty 0 -8 0 10
-228856 -1 -1 0 256;
#X text 147 159 Depth;
#X obj 331 258 rescale~;
#X obj 331 228 rampnoise~ 1;
#X obj 266 482 fbdelay~ 2000 -gain;
#X obj 396 450 f2s~ 10;
#X obj 349 353 f2s~ 100;
#X floatatom 195 132 5 0 0 0 - - -;
#X obj 331 68 vsl 24 100 0 5 0 0 empty LFO empty 0 -9 0 10 -228856
-1 -1 0 1;
#X text 156 131 rate;
#X obj 502 194 declare -path else;
#X obj 266 545 dac~ 1;
#X obj 227 361 adc~ 1;
#X connect 0 0 9 1;
#X connect 1 0 2 0;
#X connect 2 0 11 0;
#X connect 3 0 5 0;
#X connect 5 0 10 0;
#X connect 7 0 0 0;
#X connect 8 0 7 0;
#X connect 9 0 16 0;
#X connect 10 0 9 2;
#X connect 11 0 0 1;
#X connect 12 0 8 0;
#X connect 13 0 12 0;
#X connect 17 0 9 0;
#X coords 0 -1 1 1 150 120 1 100 100;
